<svg id="visual" viewBox="0 0 1080 1920" width="1080" height="1920" xmlns="http://www.w3.org/2000/svg" xmlns:xlink="http://www.w3.org/1999/xlink" version="1.1"><rect x="0" y="0" width="1080" height="1920" fill="#ffffff"></rect><path d="M0 130L25.7 127.3C51.3 124.7 102.7 119.3 154.2 118.5C205.7 117.7 257.3 121.3 308.8 112.8C360.3 104.3 411.7 83.7 463 73C514.3 62.3 565.7 61.7 617 68.8C668.3 76 719.7 91 771.2 101.7C822.7 112.3 874.3 118.7 925.8 111C977.3 103.3 1028.7 81.7 1054.3 70.8L1080 60L1080 0L1054.3 0C1028.7 0 977.3 0 925.8 0C874.3 0 822.7 0 771.2 0C719.7 0 668.3 0 617 0C565.7 0 514.3 0 463 0C411.7 0 360.3 0 308.8 0C257.3 0 205.7 0 154.2 0C102.7 0 51.3 0 25.7 0L0 0Z" fill="#22c55e" stroke-linecap="round" stroke-linejoin="miter"></path></svg>