<svg id="visual" viewBox="0 0 1920 1080" width="1920" height="1080" xmlns="http://www.w3.org/2000/svg" xmlns:xlink="http://www.w3.org/1999/xlink" version="1.1"><rect x="0" y="0" width="1920" height="1080" fill="#ffffff"></rect><path d="M918 1080L960.5 1035C1003 990 1088 900 1114.8 810C1141.7 720 1110.3 630 1069.5 540C1028.7 450 978.3 360 953.5 270C928.7 180 929.3 90 929.7 45L930 0L1920 0L1920 45C1920 90 1920 180 1920 270C1920 360 1920 450 1920 540C1920 630 1920 720 1920 810C1920 900 1920 990 1920 1035L1920 1080Z" fill="#1b9f63" stroke-linecap="round" stroke-linejoin="miter"></path></svg>