<svg id="visual" viewBox="0 0 1920 1080" width="1920" height="1080" xmlns="http://www.w3.org/2000/svg" xmlns:xlink="http://www.w3.org/1999/xlink" version="1.1"><rect x="0" y="0" width="1920" height="1080" fill="#ffffff"></rect><path d="M0 73L45.7 71.5C91.3 70 182.7 67 274.2 66.5C365.7 66 457.3 68 548.8 63.2C640.3 58.3 731.7 46.7 823 40.7C914.3 34.7 1005.7 34.3 1097 38.3C1188.3 42.3 1279.7 50.7 1371.2 56.7C1462.7 62.7 1554.3 66.3 1645.8 62C1737.3 57.7 1828.7 45.3 1874.3 39.2L1920 33L1920 0L1874.3 0C1828.7 0 1737.3 0 1645.8 0C1554.3 0 1462.7 0 1371.2 0C1279.7 0 1188.3 0 1097 0C1005.7 0 914.3 0 823 0C731.7 0 640.3 0 548.8 0C457.3 0 365.7 0 274.2 0C182.7 0 91.3 0 45.7 0L0 0Z" fill="#22c55e" stroke-linecap="round" stroke-linejoin="miter"></path></svg>