<svg id="visual" viewBox="0 0 1920 1080" width="1920" height="1080" xmlns="http://www.w3.org/2000/svg" xmlns:xlink="http://www.w3.org/1999/xlink" version="1.1"><rect x="0" y="0" width="1920" height="1080" fill="#ffffff"></rect><path d="M0 32L45.7 39.7C91.3 47.3 182.7 62.7 274.2 60.8C365.7 59 457.3 40 548.8 35.5C640.3 31 731.7 41 823 47.8C914.3 54.7 1005.7 58.3 1097 61.2C1188.3 64 1279.7 66 1371.2 66C1462.7 66 1554.3 64 1645.8 58.3C1737.3 52.7 1828.7 43.3 1874.3 38.7L1920 34L1920 0L1874.3 0C1828.7 0 1737.3 0 1645.8 0C1554.3 0 1462.7 0 1371.2 0C1279.7 0 1188.3 0 1097 0C1005.7 0 914.3 0 823 0C731.7 0 640.3 0 548.8 0C457.3 0 365.7 0 274.2 0C182.7 0 91.3 0 45.7 0L0 0Z" fill="#1a9b61" stroke-linecap="round" stroke-linejoin="miter"></path></svg>