<svg id="visual" viewBox="0 0 2160 3840" width="2160" height="3840" xmlns="http://www.w3.org/2000/svg" xmlns:xlink="http://www.w3.org/1999/xlink" version="1.1"><path d="M2008 3840L2004.3 3781.8C2000.7 3723.7 1993.3 3607.3 2007.7 3491C2022 3374.7 2058 3258.3 2068.8 3142C2079.7 3025.7 2065.3 2909.3 2065.3 2793C2065.3 2676.7 2079.7 2560.3 2072.5 2444C2065.3 2327.7 2036.7 2211.3 2029.5 2094.8C2022.3 1978.3 2036.7 1861.7 2029.5 1745.2C2022.3 1628.7 1993.7 1512.3 2000.8 1396C2008 1279.7 2051 1163.3 2069 1047C2087 930.7 2080 814.3 2072.8 698C2065.7 581.7 2058.3 465.3 2061.8 349C2065.3 232.7 2079.7 116.3 2086.8 58.2L2094 0L2160 0L2160 58.2C2160 116.3 2160 232.7 2160 349C2160 465.3 2160 581.7 2160 698C2160 814.3 2160 930.7 2160 1047C2160 1163.3 2160 1279.7 2160 1396C2160 1512.3 2160 1628.7 2160 1745.2C2160 1861.7 2160 1978.3 2160 2094.8C2160 2211.3 2160 2327.7 2160 2444C2160 2560.3 2160 2676.7 2160 2793C2160 2909.3 2160 3025.7 2160 3142C2160 3258.3 2160 3374.7 2160 3491C2160 3607.3 2160 3723.7 2160 3781.8L2160 3840Z" fill="#e4e4e4"></path><path d="M1468 3840L1464.3 3781.8C1460.7 3723.7 1453.3 3607.3 1507.3 3491C1561.3 3374.7 1676.7 3258.3 1691.2 3142C1705.7 3025.7 1619.3 2909.3 1590.5 2793C1561.7 2676.7 1590.3 2560.3 1593.8 2444C1597.3 2327.7 1575.7 2211.3 1582.8 2094.8C1590 1978.3 1626 1861.7 1644 1745.2C1662 1628.7 1662 1512.3 1683.7 1396C1705.3 1279.7 1748.7 1163.3 1752.3 1047C1756 930.7 1720 814.3 1709.2 698C1698.3 581.7 1712.7 465.3 1719.8 349C1727 232.7 1727 116.3 1727 58.2L1727 0L2095 0L2087.8 58.2C2080.7 116.3 2066.3 232.7 2062.8 349C2059.3 465.3 2066.7 581.7 2073.8 698C2081 814.3 2088 930.7 2070 1047C2052 1163.3 2009 1279.7 2001.8 1396C1994.7 1512.3 2023.3 1628.7 2030.5 1745.2C2037.7 1861.7 2023.3 1978.3 2030.5 2094.8C2037.7 2211.3 2066.3 2327.7 2073.5 2444C2080.7 2560.3 2066.3 2676.7 2066.3 2793C2066.3 2909.3 2080.7 3025.7 2069.8 3142C2059 3258.3 2023 3374.7 2008.7 3491C1994.3 3607.3 2001.7 3723.7 2005.3 3781.8L2009 3840Z" fill="#ededed"></path><path d="M1057 3840L1039 3781.8C1021 3723.7 985 3607.3 970.7 3491C956.3 3374.7 963.7 3258.3 1014.2 3142C1064.7 3025.7 1158.3 2909.3 1198 2793C1237.7 2676.7 1223.3 2560.3 1208.8 2444C1194.3 2327.7 1179.7 2211.3 1176 2094.8C1172.3 1978.3 1179.7 1861.7 1194.2 1745.2C1208.7 1628.7 1230.3 1512.3 1237.5 1396C1244.7 1279.7 1237.3 1163.3 1219.3 1047C1201.3 930.7 1172.7 814.3 1165.5 698C1158.3 581.7 1172.7 465.3 1201.5 349C1230.3 232.7 1273.7 116.3 1295.3 58.2L1317 0L1728 0L1728 58.2C1728 116.3 1728 232.7 1720.8 349C1713.7 465.3 1699.3 581.7 1710.2 698C1721 814.3 1757 930.7 1753.3 1047C1749.7 1163.3 1706.3 1279.7 1684.7 1396C1663 1512.3 1663 1628.7 1645 1745.2C1627 1861.7 1591 1978.3 1583.8 2094.8C1576.7 2211.3 1598.3 2327.7 1594.8 2444C1591.3 2560.3 1562.7 2676.7 1591.5 2793C1620.3 2909.3 1706.7 3025.7 1692.2 3142C1677.7 3258.3 1562.3 3374.7 1508.3 3491C1454.3 3607.3 1461.7 3723.7 1465.3 3781.8L1469 3840Z" fill="#f4f4f4"></path><path d="M885 3840L863.3 3781.8C841.7 3723.7 798.3 3607.3 787.5 3491C776.7 3374.7 798.3 3258.3 848.7 3142C899 3025.7 978 2909.3 1010.3 2793C1042.7 2676.7 1028.3 2560.3 1006.8 2444C985.3 2327.7 956.7 2211.3 949.5 2094.8C942.3 1978.3 956.7 1861.7 985.5 1745.2C1014.3 1628.7 1057.7 1512.3 1090 1396C1122.3 1279.7 1143.7 1163.3 1125.7 1047C1107.7 930.7 1050.3 814.3 1036 698C1021.7 581.7 1050.3 465.3 1075.5 349C1100.7 232.7 1122.3 116.3 1133.2 58.2L1144 0L1318 0L1296.3 58.2C1274.7 116.3 1231.3 232.7 1202.5 349C1173.7 465.3 1159.3 581.7 1166.5 698C1173.7 814.3 1202.3 930.7 1220.3 1047C1238.3 1163.3 1245.7 1279.7 1238.5 1396C1231.3 1512.3 1209.7 1628.7 1195.2 1745.2C1180.7 1861.7 1173.3 1978.3 1177 2094.8C1180.7 2211.3 1195.3 2327.7 1209.8 2444C1224.3 2560.3 1238.7 2676.7 1199 2793C1159.3 2909.3 1065.7 3025.7 1015.2 3142C964.7 3258.3 957.3 3374.7 971.7 3491C986 3607.3 1022 3723.7 1040 3781.8L1058 3840Z" fill="#f7f7f7"></path><path d="M777 3840L744.5 3781.8C712 3723.7 647 3607.3 636.2 3491C625.3 3374.7 668.7 3258.3 722.7 3142C776.7 3025.7 841.3 2909.3 848.5 2793C855.7 2676.7 805.3 2560.3 755 2444C704.7 2327.7 654.3 2211.3 658 2094.8C661.7 1978.3 719.3 1861.7 751.7 1745.2C784 1628.7 791 1512.3 834.2 1396C877.3 1279.7 956.7 1163.3 960.3 1047C964 930.7 892 814.3 859.5 698C827 581.7 834 465.3 841.2 349C848.3 232.7 855.7 116.3 859.3 58.2L863 0L1145 0L1134.2 58.2C1123.3 116.3 1101.7 232.7 1076.5 349C1051.3 465.3 1022.7 581.7 1037 698C1051.3 814.3 1108.7 930.7 1126.7 1047C1144.7 1163.3 1123.3 1279.7 1091 1396C1058.7 1512.3 1015.3 1628.7 986.5 1745.2C957.7 1861.7 943.3 1978.3 950.5 2094.8C957.7 2211.3 986.3 2327.7 1007.8 2444C1029.3 2560.3 1043.7 2676.7 1011.3 2793C979 2909.3 900 3025.7 849.7 3142C799.3 3258.3 777.7 3374.7 788.5 3491C799.3 3607.3 842.7 3723.7 864.3 3781.8L886 3840Z" fill="#f8f8f8"></path><path d="M604 3840L578.8 3781.8C553.7 3723.7 503.3 3607.3 499.7 3491C496 3374.7 539 3258.3 596.5 3142C654 3025.7 726 2909.3 729.7 2793C733.3 2676.7 668.7 2560.3 621.8 2444C575 2327.7 546 2211.3 556.8 2094.8C567.7 1978.3 618.3 1861.7 654.3 1745.2C690.3 1628.7 711.7 1512.3 751.2 1396C790.7 1279.7 848.3 1163.3 852 1047C855.7 930.7 805.3 814.3 783.8 698C762.3 581.7 769.7 465.3 766 349C762.3 232.7 747.7 116.3 740.3 58.2L733 0L864 0L860.3 58.2C856.7 116.3 849.3 232.7 842.2 349C835 465.3 828 581.7 860.5 698C893 814.3 965 930.7 961.3 1047C957.7 1163.3 878.3 1279.7 835.2 1396C792 1512.3 785 1628.7 752.7 1745.2C720.3 1861.7 662.7 1978.3 659 2094.8C655.3 2211.3 705.7 2327.7 756 2444C806.3 2560.3 856.7 2676.7 849.5 2793C842.3 2909.3 777.7 3025.7 723.7 3142C669.7 3258.3 626.3 3374.7 637.2 3491C648 3607.3 713 3723.7 745.5 3781.8L778 3840Z" fill="#f8f8f8"></path><path d="M517 3840L499 3781.8C481 3723.7 445 3607.3 441.5 3491C438 3374.7 467 3258.3 506.7 3142C546.3 3025.7 596.7 2909.3 596.7 2793C596.7 2676.7 546.3 2560.3 514 2444C481.7 2327.7 467.3 2211.3 474.5 2094.8C481.7 1978.3 510.3 1861.7 546.3 1745.2C582.3 1628.7 625.7 1512.3 665.3 1396C705 1279.7 741 1163.3 737.3 1047C733.7 930.7 690.3 814.3 668.7 698C647 581.7 647 465.3 643.3 349C639.7 232.7 632.3 116.3 628.7 58.2L625 0L734 0L741.3 58.2C748.7 116.3 763.3 232.7 767 349C770.7 465.3 763.3 581.7 784.8 698C806.3 814.3 856.7 930.7 853 1047C849.3 1163.3 791.7 1279.7 752.2 1396C712.7 1512.3 691.3 1628.7 655.3 1745.2C619.3 1861.7 568.7 1978.3 557.8 2094.8C547 2211.3 576 2327.7 622.8 2444C669.7 2560.3 734.3 2676.7 730.7 2793C727 2909.3 655 3025.7 597.5 3142C540 3258.3 497 3374.7 500.7 3491C504.3 3607.3 554.7 3723.7 579.8 3781.8L605 3840Z" fill="#f7f7f7"></path><path d="M388 3840L366.3 3781.8C344.7 3723.7 301.3 3607.3 283.3 3491C265.3 3374.7 272.7 3258.3 276.3 3142C280 3025.7 280 2909.3 280 2793C280 2676.7 280 2560.3 265.5 2444C251 2327.7 222 2211.3 232.8 2094.8C243.7 1978.3 294.3 1861.7 319.7 1745.2C345 1628.7 345 1512.3 341.3 1396C337.7 1279.7 330.3 1163.3 305 1047C279.7 930.7 236.3 814.3 243.5 698C250.7 581.7 308.3 465.3 330 349C351.7 232.7 337.3 116.3 330.2 58.2L323 0L626 0L629.7 58.2C633.3 116.3 640.7 232.7 644.3 349C648 465.3 648 581.7 669.7 698C691.3 814.3 734.7 930.7 738.3 1047C742 1163.3 706 1279.7 666.3 1396C626.7 1512.3 583.3 1628.7 547.3 1745.2C511.3 1861.7 482.7 1978.3 475.5 2094.8C468.3 2211.3 482.7 2327.7 515 2444C547.3 2560.3 597.7 2676.7 597.7 2793C597.7 2909.3 547.3 3025.7 507.7 3142C468 3258.3 439 3374.7 442.5 3491C446 3607.3 482 3723.7 500 3781.8L518 3840Z" fill="#f4f4f4"></path><path d="M215 3840L193.3 3781.8C171.7 3723.7 128.3 3607.3 124.7 3491C121 3374.7 157 3258.3 164.3 3142C171.7 3025.7 150.3 2909.3 154 2793C157.7 2676.7 186.3 2560.3 179 2444C171.7 2327.7 128.3 2211.3 117.5 2094.8C106.7 1978.3 128.3 1861.7 150 1745.2C171.7 1628.7 193.3 1512.3 197 1396C200.7 1279.7 186.3 1163.3 168.3 1047C150.3 930.7 128.7 814.3 143 698C157.3 581.7 207.7 465.3 214.8 349C222 232.7 186 116.3 168 58.2L150 0L324 0L331.2 58.2C338.3 116.3 352.7 232.7 331 349C309.3 465.3 251.7 581.7 244.5 698C237.3 814.3 280.7 930.7 306 1047C331.3 1163.3 338.7 1279.7 342.3 1396C346 1512.3 346 1628.7 320.7 1745.2C295.3 1861.7 244.7 1978.3 233.8 2094.8C223 2211.3 252 2327.7 266.5 2444C281 2560.3 281 2676.7 281 2793C281 2909.3 281 3025.7 277.3 3142C273.7 3258.3 266.3 3374.7 284.3 3491C302.3 3607.3 345.7 3723.7 367.3 3781.8L389 3840Z" fill="#ededed"></path><path d="M0 3840L0 3781.8C0 3723.7 0 3607.3 0 3491C0 3374.7 0 3258.3 0 3142C0 3025.7 0 2909.3 0 2793C0 2676.7 0 2560.3 0 2444C0 2327.7 0 2211.3 0 2094.8C0 1978.3 0 1861.7 0 1745.2C0 1628.7 0 1512.3 0 1396C0 1279.7 0 1163.3 0 1047C0 930.7 0 814.3 0 698C0 581.7 0 465.3 0 349C0 232.7 0 116.3 0 58.2L0 0L151 0L169 58.2C187 116.3 223 232.7 215.8 349C208.7 465.3 158.3 581.7 144 698C129.7 814.3 151.3 930.7 169.3 1047C187.3 1163.3 201.7 1279.7 198 1396C194.3 1512.3 172.7 1628.7 151 1745.2C129.3 1861.7 107.7 1978.3 118.5 2094.8C129.3 2211.3 172.7 2327.7 180 2444C187.3 2560.3 158.7 2676.7 155 2793C151.3 2909.3 172.7 3025.7 165.3 3142C158 3258.3 122 3374.7 125.7 3491C129.3 3607.3 172.7 3723.7 194.3 3781.8L216 3840Z" fill="#e4e4e4"></path></svg>