<svg xmlns="http://www.w3.org/2000/svg" xmlns:xlink="http://www.w3.org/1999/xlink" width="1920" zoomAndPan="magnify" viewBox="0 0 1440 809.999993" height="1080" preserveAspectRatio="xMidYMid meet" version="1.0"><defs><clipPath id="ff716e434f"><path d="M 0 396.871094 L 1440 396.871094 L 1440 810 L 0 810 Z M 0 396.871094 " clip-rule="nonzero"/></clipPath><clipPath id="9b17775de9"><path d="M 0 0 L 1440 0 L 1440 413.25 L 0 413.25 Z M 0 0 " clip-rule="nonzero"/></clipPath></defs><g clip-path="url(#ff716e434f)"><rect x="-144" width="1728" fill="#ffffff" y="-80.999999" height="971.999992" fill-opacity="1"/></g><path fill="#22c55e" d="M 0 703.5 L 24 704.363281 C 48 705.261719 96 706.988281 144 718.800781 C 192 730.613281 240 752.511719 288 762.113281 C 336 771.75 384 769.125 432 754.386719 C 480 739.613281 528 712.761719 576 714.074219 C 624 715.386719 672 744.863281 720 744.1875 C 768 743.511719 816 712.613281 864 709.125 C 912 705.636719 960 729.488281 1008 731.363281 C 1056 733.238281 1104 713.136719 1152 703.125 C 1200 693.113281 1248 693.261719 1296 690.300781 C 1344 687.375 1392 681.375 1416 678.375 L 1440 675.375 L 1440 810.375 L 1416 810.375 C 1392 810.375 1344 810.375 1296 810.375 C 1248 810.375 1200 810.375 1152 810.375 C 1104 810.375 1056 810.375 1008 810.375 C 960 810.375 912 810.375 864 810.375 C 816 810.375 768 810.375 720 810.375 C 672 810.375 624 810.375 576 810.375 C 528 810.375 480 810.375 432 810.375 C 384 810.375 336 810.375 288 810.375 C 240 810.375 192 810.375 144 810.375 C 96 810.375 48 810.375 24 810.375 L 0 810.375 Z M 0 703.5 " fill-opacity="1" fill-rule="nonzero"/><g clip-path="url(#9b17775de9)"><path fill="#ffffff" d="M 0 809.992188 L 1440 809.992188 L 1440 -0.0078125 L 0 -0.0078125 Z M 0 809.992188 " fill-opacity="1" fill-rule="nonzero"/></g><path fill="#22c55e" d="M 0 106.492188 L 24 105.628906 C 48 104.730469 96 103.003906 144 91.191406 C 192 79.378906 240 57.480469 288 47.878906 C 336 38.242188 384 40.867188 432 55.605469 C 480 70.378906 528 97.230469 576 95.917969 C 624 94.605469 672 65.128906 720 65.804688 C 768 66.480469 816 97.378906 864 100.867188 C 912 104.355469 960 80.503906 1008 78.628906 C 1056 76.753906 1104 96.855469 1152 106.867188 C 1200 116.878906 1248 116.730469 1296 119.691406 C 1344 122.617188 1392 128.617188 1416 131.617188 L 1440 134.617188 L 1440 -0.382812 L 1416 -0.382812 C 1392 -0.382812 1344 -0.382812 1296 -0.382812 C 1248 -0.382812 1200 -0.382812 1152 -0.382812 C 1104 -0.382812 1056 -0.382812 1008 -0.382812 C 960 -0.382812 912 -0.382812 864 -0.382812 C 816 -0.382812 768 -0.382812 720 -0.382812 C 672 -0.382812 624 -0.382812 576 -0.382812 C 528 -0.382812 480 -0.382812 432 -0.382812 C 384 -0.382812 336 -0.382812 288 -0.382812 C 240 -0.382812 192 -0.382812 144 -0.382812 C 96 -0.382812 48 -0.382812 24 -0.382812 L 0 -0.382812 Z M 0 106.492188 " fill-opacity="1" fill-rule="nonzero"/></svg>