<svg id="visual" viewBox="0 0 2160 3840" width="2160" height="3840" xmlns="http://www.w3.org/2000/svg" xmlns:xlink="http://www.w3.org/1999/xlink" version="1.1"><rect x="0" y="0" width="2160" height="3840" fill="#ffffff"></rect><path d="M0 2298L51.5 2300.2C103 2302.3 206 2306.7 308.8 2404.7C411.7 2502.7 514.3 2694.3 617.2 2842.5C720 2990.7 823 3095.3 925.8 3113.8C1028.7 3132.3 1131.3 3064.7 1234.2 2935.8C1337 2807 1440 2617 1542.8 2589.7C1645.7 2562.3 1748.3 2697.7 1851.2 2695.3C1954 2693 2057 2553 2108.5 2483L2160 2413L2160 3841L2108.5 3841C2057 3841 1954 3841 1851.2 3841C1748.3 3841 1645.7 3841 1542.8 3841C1440 3841 1337 3841 1234.2 3841C1131.3 3841 1028.7 3841 925.8 3841C823 3841 720 3841 617.2 3841C514.3 3841 411.7 3841 308.8 3841C206 3841 103 3841 51.5 3841L0 3841Z" fill="#22c55e" stroke-linecap="round" stroke-linejoin="miter"></path></svg>