<svg id="visual" viewBox="0 0 2160 3840" width="2160" height="3840" xmlns="http://www.w3.org/2000/svg" xmlns:xlink="http://www.w3.org/1999/xlink" version="1.1"><path d="M1986 3840L1964.5 3781.8C1943 3723.7 1900 3607.3 1867.7 3491C1835.3 3374.7 1813.7 3258.3 1835.2 3142C1856.7 3025.7 1921.3 2909.3 1950.2 2793C1979 2676.7 1972 2560.3 1946.8 2444C1921.7 2327.7 1878.3 2211.3 1881.8 2094.8C1885.3 1978.3 1935.7 1861.7 1957.3 1745.2C1979 1628.7 1972 1512.3 1972 1396C1972 1279.7 1979 1163.3 1953.7 1047C1928.3 930.7 1870.7 814.3 1849.2 698C1827.7 581.7 1842.3 465.3 1828 349C1813.7 232.7 1770.3 116.3 1748.7 58.2L1727 0L2160 0L2160 58.2C2160 116.3 2160 232.7 2160 349C2160 465.3 2160 581.7 2160 698C2160 814.3 2160 930.7 2160 1047C2160 1163.3 2160 1279.7 2160 1396C2160 1512.3 2160 1628.7 2160 1745.2C2160 1861.7 2160 1978.3 2160 2094.8C2160 2211.3 2160 2327.7 2160 2444C2160 2560.3 2160 2676.7 2160 2793C2160 2909.3 2160 3025.7 2160 3142C2160 3258.3 2160 3374.7 2160 3491C2160 3607.3 2160 3723.7 2160 3781.8L2160 3840Z" fill="#606060"></path><path d="M1338 3840L1388.5 3781.8C1439 3723.7 1540 3607.3 1536.5 3491C1533 3374.7 1425 3258.3 1407 3142C1389 3025.7 1461 2909.3 1525.7 2793C1590.3 2676.7 1647.7 2560.3 1658.3 2444C1669 2327.7 1633 2211.3 1611.5 2094.8C1590 1978.3 1583 1861.7 1543.5 1745.2C1504 1628.7 1432 1512.3 1406.8 1396C1381.7 1279.7 1403.3 1163.3 1421.3 1047C1439.3 930.7 1453.7 814.3 1460.8 698C1468 581.7 1468 465.3 1421.2 349C1374.3 232.7 1280.7 116.3 1233.8 58.2L1187 0L1728 0L1749.7 58.2C1771.3 116.3 1814.7 232.7 1829 349C1843.3 465.3 1828.7 581.7 1850.2 698C1871.7 814.3 1929.3 930.7 1954.7 1047C1980 1163.3 1973 1279.7 1973 1396C1973 1512.3 1980 1628.7 1958.3 1745.2C1936.7 1861.7 1886.3 1978.3 1882.8 2094.8C1879.3 2211.3 1922.7 2327.7 1947.8 2444C1973 2560.3 1980 2676.7 1951.2 2793C1922.3 2909.3 1857.7 3025.7 1836.2 3142C1814.7 3258.3 1836.3 3374.7 1868.7 3491C1901 3607.3 1944 3723.7 1965.5 3781.8L1987 3840Z" fill="#737373"></path><path d="M1144 3840L1198 3781.8C1252 3723.7 1360 3607.3 1363.5 3491C1367 3374.7 1266 3258.3 1248 3142C1230 3025.7 1295 2909.3 1374.3 2793C1453.7 2676.7 1547.3 2560.3 1576.2 2444C1605 2327.7 1569 2211.3 1547.3 2094.8C1525.7 1978.3 1518.3 1861.7 1475 1745.2C1431.7 1628.7 1352.3 1512.3 1316.3 1396C1280.3 1279.7 1287.7 1163.3 1298.5 1047C1309.3 930.7 1323.7 814.3 1338 698C1352.3 581.7 1366.7 465.3 1309.2 349C1251.7 232.7 1122.3 116.3 1057.7 58.2L993 0L1188 0L1234.8 58.2C1281.7 116.3 1375.3 232.7 1422.2 349C1469 465.3 1469 581.7 1461.8 698C1454.7 814.3 1440.3 930.7 1422.3 1047C1404.3 1163.3 1382.7 1279.7 1407.8 1396C1433 1512.3 1505 1628.7 1544.5 1745.2C1584 1861.7 1591 1978.3 1612.5 2094.8C1634 2211.3 1670 2327.7 1659.3 2444C1648.7 2560.3 1591.3 2676.7 1526.7 2793C1462 2909.3 1390 3025.7 1408 3142C1426 3258.3 1534 3374.7 1537.5 3491C1541 3607.3 1440 3723.7 1389.5 3781.8L1339 3840Z" fill="#878787"></path><path d="M993 3840L1039.7 3781.8C1086.3 3723.7 1179.7 3607.3 1183.2 3491C1186.7 3374.7 1100.3 3258.3 1096.8 3142C1093.3 3025.7 1172.7 2909.3 1255.5 2793C1338.3 2676.7 1424.7 2560.3 1460.7 2444C1496.7 2327.7 1482.3 2211.3 1464.3 2094.8C1446.3 1978.3 1424.7 1861.7 1352.7 1745.2C1280.7 1628.7 1158.3 1512.3 1118.7 1396C1079 1279.7 1122 1163.3 1158 1047C1194 930.7 1223 814.3 1226.7 698C1230.3 581.7 1208.7 465.3 1140.2 349C1071.7 232.7 956.3 116.3 898.7 58.2L841 0L994 0L1058.7 58.2C1123.3 116.3 1252.7 232.7 1310.2 349C1367.7 465.3 1353.3 581.7 1339 698C1324.7 814.3 1310.3 930.7 1299.5 1047C1288.7 1163.3 1281.3 1279.7 1317.3 1396C1353.3 1512.3 1432.7 1628.7 1476 1745.2C1519.3 1861.7 1526.7 1978.3 1548.3 2094.8C1570 2211.3 1606 2327.7 1577.2 2444C1548.3 2560.3 1454.7 2676.7 1375.3 2793C1296 2909.3 1231 3025.7 1249 3142C1267 3258.3 1368 3374.7 1364.5 3491C1361 3607.3 1253 3723.7 1199 3781.8L1145 3840Z" fill="#9b9b9b"></path><path d="M949 3840L988.7 3781.8C1028.3 3723.7 1107.7 3607.3 1107.7 3491C1107.7 3374.7 1028.3 3258.3 1024.7 3142C1021 3025.7 1093 2909.3 1168.7 2793C1244.3 2676.7 1323.7 2560.3 1356.2 2444C1388.7 2327.7 1374.3 2211.3 1363.5 2094.8C1352.7 1978.3 1345.3 1861.7 1280.5 1745.2C1215.7 1628.7 1093.3 1512.3 1043 1396C992.7 1279.7 1014.3 1163.3 1046.7 1047C1079 930.7 1122 814.3 1125.5 698C1129 581.7 1093 465.3 1028.3 349C963.7 232.7 870.3 116.3 823.7 58.2L777 0L842 0L899.7 58.2C957.3 116.3 1072.7 232.7 1141.2 349C1209.7 465.3 1231.3 581.7 1227.7 698C1224 814.3 1195 930.7 1159 1047C1123 1163.3 1080 1279.7 1119.7 1396C1159.3 1512.3 1281.7 1628.7 1353.7 1745.2C1425.7 1861.7 1447.3 1978.3 1465.3 2094.8C1483.3 2211.3 1497.7 2327.7 1461.7 2444C1425.7 2560.3 1339.3 2676.7 1256.5 2793C1173.7 2909.3 1094.3 3025.7 1097.8 3142C1101.3 3258.3 1187.7 3374.7 1184.2 3491C1180.7 3607.3 1087.3 3723.7 1040.7 3781.8L994 3840Z" fill="#a8a8a8"></path><path d="M539 3840L567.8 3781.8C596.7 3723.7 654.3 3607.3 690.3 3491C726.3 3374.7 740.7 3258.3 729.8 3142C719 3025.7 683 2909.3 654.2 2793C625.3 2676.7 603.7 2560.3 636 2444C668.3 2327.7 754.7 2211.3 783.5 2094.8C812.3 1978.3 783.7 1861.7 722.5 1745.2C661.3 1628.7 567.7 1512.3 556.8 1396C546 1279.7 618 1163.3 654 1047C690 930.7 690 814.3 672 698C654 581.7 618 465.3 592.8 349C567.7 232.7 553.3 116.3 546.2 58.2L539 0L778 0L824.7 58.2C871.3 116.3 964.7 232.7 1029.3 349C1094 465.3 1130 581.7 1126.5 698C1123 814.3 1080 930.7 1047.7 1047C1015.3 1163.3 993.7 1279.7 1044 1396C1094.3 1512.3 1216.7 1628.7 1281.5 1745.2C1346.3 1861.7 1353.7 1978.3 1364.5 2094.8C1375.3 2211.3 1389.7 2327.7 1357.2 2444C1324.7 2560.3 1245.3 2676.7 1169.7 2793C1094 2909.3 1022 3025.7 1025.7 3142C1029.3 3258.3 1108.7 3374.7 1108.7 3491C1108.7 3607.3 1029.3 3723.7 989.7 3781.8L950 3840Z" fill="#a8a8a8"></path><path d="M345 3840L366.5 3781.8C388 3723.7 431 3607.3 456.2 3491C481.3 3374.7 488.7 3258.3 481.5 3142C474.3 3025.7 452.7 2909.3 427.5 2793C402.3 2676.7 373.7 2560.3 398.8 2444C424 2327.7 503 2211.3 549.7 2094.8C596.3 1978.3 610.7 1861.7 567.5 1745.2C524.3 1628.7 423.7 1512.3 395 1396C366.3 1279.7 409.7 1163.3 449.3 1047C489 930.7 525 814.3 517.7 698C510.3 581.7 459.7 465.3 409.2 349C358.7 232.7 308.3 116.3 283.2 58.2L258 0L540 0L547.2 58.2C554.3 116.3 568.7 232.7 593.8 349C619 465.3 655 581.7 673 698C691 814.3 691 930.7 655 1047C619 1163.3 547 1279.7 557.8 1396C568.7 1512.3 662.3 1628.7 723.5 1745.2C784.7 1861.7 813.3 1978.3 784.5 2094.8C755.7 2211.3 669.3 2327.7 637 2444C604.7 2560.3 626.3 2676.7 655.2 2793C684 2909.3 720 3025.7 730.8 3142C741.7 3258.3 727.3 3374.7 691.3 3491C655.3 3607.3 597.7 3723.7 568.8 3781.8L540 3840Z" fill="#9b9b9b"></path><path d="M150 3840L171.7 3781.8C193.3 3723.7 236.7 3607.3 258.3 3491C280 3374.7 280 3258.3 290.8 3142C301.7 3025.7 323.3 2909.3 319.7 2793C316 2676.7 287 2560.3 283.3 2444C279.7 2327.7 301.3 2211.3 319.3 2094.8C337.3 1978.3 351.7 1861.7 333.7 1745.2C315.7 1628.7 265.3 1512.3 251 1396C236.7 1279.7 258.3 1163.3 272.7 1047C287 930.7 294 814.3 290.3 698C286.7 581.7 272.3 465.3 247.2 349C222 232.7 186 116.3 168 58.2L150 0L259 0L284.2 58.2C309.3 116.3 359.7 232.7 410.2 349C460.7 465.3 511.3 581.7 518.7 698C526 814.3 490 930.7 450.3 1047C410.7 1163.3 367.3 1279.7 396 1396C424.7 1512.3 525.3 1628.7 568.5 1745.2C611.7 1861.7 597.3 1978.3 550.7 2094.8C504 2211.3 425 2327.7 399.8 2444C374.7 2560.3 403.3 2676.7 428.5 2793C453.7 2909.3 475.3 3025.7 482.5 3142C489.7 3258.3 482.3 3374.7 457.2 3491C432 3607.3 389 3723.7 367.5 3781.8L346 3840Z" fill="#878787"></path><path d="M85 3840L95.8 3781.8C106.7 3723.7 128.3 3607.3 146.3 3491C164.3 3374.7 178.7 3258.3 182.3 3142C186 3025.7 179 2909.3 164.7 2793C150.3 2676.7 128.7 2560.3 132.2 2444C135.7 2327.7 164.3 2211.3 178.7 2094.8C193 1978.3 193 1861.7 171.5 1745.2C150 1628.7 107 1512.3 99.8 1396C92.7 1279.7 121.3 1163.3 135.7 1047C150 930.7 150 814.3 160.8 698C171.7 581.7 193.3 465.3 182.5 349C171.7 232.7 128.3 116.3 106.7 58.2L85 0L151 0L169 58.2C187 116.3 223 232.7 248.2 349C273.3 465.3 287.7 581.7 291.3 698C295 814.3 288 930.7 273.7 1047C259.3 1163.3 237.7 1279.7 252 1396C266.3 1512.3 316.7 1628.7 334.7 1745.2C352.7 1861.7 338.3 1978.3 320.3 2094.8C302.3 2211.3 280.7 2327.7 284.3 2444C288 2560.3 317 2676.7 320.7 2793C324.3 2909.3 302.7 3025.7 291.8 3142C281 3258.3 281 3374.7 259.3 3491C237.7 3607.3 194.3 3723.7 172.7 3781.8L151 3840Z" fill="#737373"></path><path d="M0 3840L0 3781.8C0 3723.7 0 3607.3 0 3491C0 3374.7 0 3258.3 0 3142C0 3025.7 0 2909.3 0 2793C0 2676.7 0 2560.3 0 2444C0 2327.7 0 2211.3 0 2094.8C0 1978.3 0 1861.7 0 1745.2C0 1628.7 0 1512.3 0 1396C0 1279.7 0 1163.3 0 1047C0 930.7 0 814.3 0 698C0 581.7 0 465.3 0 349C0 232.7 0 116.3 0 58.2L0 0L86 0L107.7 58.2C129.3 116.3 172.7 232.7 183.5 349C194.3 465.3 172.7 581.7 161.8 698C151 814.3 151 930.7 136.7 1047C122.3 1163.3 93.7 1279.7 100.8 1396C108 1512.3 151 1628.7 172.5 1745.2C194 1861.7 194 1978.3 179.7 2094.8C165.3 2211.3 136.7 2327.7 133.2 2444C129.7 2560.3 151.3 2676.7 165.7 2793C180 2909.3 187 3025.7 183.3 3142C179.7 3258.3 165.3 3374.7 147.3 3491C129.3 3607.3 107.7 3723.7 96.8 3781.8L86 3840Z" fill="#606060"></path></svg>