<svg xmlns="http://www.w3.org/2000/svg" xmlns:xlink="http://www.w3.org/1999/xlink" width="1123" zoomAndPan="magnify" viewBox="0 0 841.92 595.499987" height="794" preserveAspectRatio="xMidYMid meet" version="1.0"><defs><clipPath id="9d1ca1622a"><path d="M 195.253906 113.628906 L 574 113.628906 L 574 366 L 195.253906 366 Z M 195.253906 113.628906 " clip-rule="nonzero"/></clipPath></defs><g clip-path="url(#9d1ca1622a)"><path fill="#1f2937" d="M 329.996094 61.652344 C 350.601562 61.824219 373.269531 63.925781 394.355469 63.148438 C 416.75 62.277344 438.160156 54.8125 460.160156 51.304688 C 498.921875 45.929688 534.351562 71.792969 555.042969 102.542969 C 570.269531 124.332031 575.925781 151.542969 572.902344 177.882812 C 572.34375 186.6875 568.71875 194.429688 565.449219 202.277344 C 561.082031 212.777344 556.222656 223.089844 549.128906 232.109375 C 525.804688 260.390625 492.832031 278.148438 465.003906 301.429688 C 462.28125 303.585938 460.394531 306.394531 458.796875 309.460938 C 450.113281 327.339844 441.113281 346.824219 422.042969 355.640625 C 390.988281 372.890625 350.269531 367.917969 323.730469 344.269531 C 317.117188 338.238281 311.589844 331.179688 304.886719 325.28125 C 285.542969 307.351562 266.433594 285.523438 239.53125 279.820312 C 211.058594 277.363281 196.253906 298.519531 165.734375 288.90625 C 136.199219 281.132812 126.203125 246.785156 127.5 219.402344 C 129.695312 194.605469 139.652344 171.007812 152.96875 150.191406 C 196.195312 88.222656 254.832031 60.289062 329.996094 61.652344 Z M 329.996094 61.652344 " fill-opacity="1" fill-rule="nonzero"/></g></svg>