<svg xmlns="http://www.w3.org/2000/svg" version="1.1" xmlns:xlink="http://www.w3.org/1999/xlink" xmlns:svgjs="http://svgjs.dev/svgjs" width="1920" height="1080" preserveAspectRatio="none" viewBox="0 0 1920 1080"><g mask="url(&quot;#SvgjsMask1016&quot;)" fill="none"><path d="M392.89 1197.38C569.91 1186.93 701.18 861.88 1017.51 861.24 1333.85 860.6 1329.83 996.24 1642.14 996.24 1954.45 996.24 2107 862.01 2266.76 861.24" stroke="rgba(34, 197, 94, 1)" stroke-width="2"></path><path d="M682.52 1170.4C944.16 1122.71 1075.92 468.16 1480.76 467.2 1885.6 466.24 2052.5 885.64 2279 899.2" stroke="rgba(34, 197, 94, 1)" stroke-width="2"></path><path d="M581.15 1227.72C764.83 1187.23 834.42 709.99 1121.44 704.14 1408.46 698.29 1391.59 839.14 1661.73 839.14 1931.88 839.14 2062.8 705.16 2202.02 704.14" stroke="rgba(34, 197, 94, 1)" stroke-width="2"></path><path d="M725.83 1255.8C922.88 1231.29 976.37 828.67 1365.32 784.69 1754.27 740.71 1812.88 372.3 2004.81 352.69" stroke="rgba(34, 197, 94, 1)" stroke-width="2"></path><path d="M746.09 1285.96C921.2 1234.27 798.26 779.03 1229.2 738.26 1660.13 697.49 1934.13 346.44 2195.41 338.66" stroke="rgba(34, 197, 94, 1)" stroke-width="2"></path></g><defs><mask id="SvgjsMask1016"><rect width="1920" height="1080" fill="#ffffff"></rect></mask></defs></svg>