<svg xmlns="http://www.w3.org/2000/svg" version="1.1" xmlns:xlink="http://www.w3.org/1999/xlink" xmlns:svgjs="http://svgjs.dev/svgjs" width="1440" height="560" preserveAspectRatio="none" viewBox="0 0 1440 560"><g mask="url(&quot;#SvgjsMask1067&quot;)" fill="none"><rect width="1440" height="560" x="0" y="0" fill="rgba(239, 239, 239, 1)"></rect><path d="M0,341.204C87.78,342.266,174.74,433.558,252.722,393.243C329.139,353.737,316.234,238.972,350.434,160.038C383.77,83.098,474.08,15.797,451.212,-64.875C427.689,-147.857,314.489,-161.243,244.911,-212.217C193.474,-249.901,149.674,-291.713,95.556,-325.434C21.352,-371.672,-43.732,-449.576,-131.11,-446.521C-221.011,-443.378,-308.64,-385.261,-357.299,-309.601C-404.381,-236.393,-394.846,-141.264,-382.878,-55.05C-373.095,15.425,-316.223,66.897,-295.582,134.988C-270.267,218.498,-320.39,337.246,-248.823,387.176C-178.219,436.433,-86.082,340.163,0,341.204" fill="#aaaaaa"></path><path d="M1440 915.755C1508.234 900.796 1575.356 897.0419999999999 1640.652 872.22 1721.311 841.557 1823.1480000000001 829.5419999999999 1865.12 754.146 1907.04 678.844 1864.017 585.972 1847.041 501.476 1830.987 421.571 1811.936 344.23 1768.862 275.04 1719.782 196.202 1668.6 109.82100000000003 1582.13 75.94999999999999 1493.461 41.21799999999996 1389.638 53.55200000000002 1302.715 92.44900000000001 1220.795 129.10700000000003 1181.9850000000001 217.813 1120.0230000000001 282.739 1054.128 351.78700000000003 945.587 392.628 926.914 486.229 908.223 579.923 984.027 663.285 1027.092 748.569 1068.3980000000001 830.371 1088.594 940.236 1173.534 974.6279999999999 1259.591 1009.473 1349.31 935.637 1440 915.755" fill="#ffffff"></path></g><defs><mask id="SvgjsMask1067"><rect width="1440" height="560" fill="#ffffff"></rect></mask></defs></svg>