<svg id="visual" viewBox="0 0 2160 3840" width="2160" height="3840" xmlns="http://www.w3.org/2000/svg" xmlns:xlink="http://www.w3.org/1999/xlink" version="1.1"><path d="M0 231L30 301.5C60 372 120 513 180 500.3C240 487.7 300 321.3 360 257.3C420 193.3 480 231.7 540 295.7C600 359.7 660 449.3 720 513.3C780 577.3 840 615.7 900 615.7C960 615.7 1020 577.3 1080 590.2C1140 603 1200 667 1260 615.7C1320 564.3 1380 397.7 1440 346.3C1500 295 1560 359 1620 359C1680 359 1740 295 1800 250.3C1860 205.7 1920 180.3 1980 218.8C2040 257.3 2100 359.7 2130 410.8L2160 462L2160 0L2130 0C2100 0 2040 0 1980 0C1920 0 1860 0 1800 0C1740 0 1680 0 1620 0C1560 0 1500 0 1440 0C1380 0 1320 0 1260 0C1200 0 1140 0 1080 0C1020 0 960 0 900 0C840 0 780 0 720 0C660 0 600 0 540 0C480 0 420 0 360 0C300 0 240 0 180 0C120 0 60 0 30 0L0 0Z" fill="#dbdbdb"></path><path d="M0 385L30 449C60 513 120 641 180 621.8C240 602.7 300 436.3 360 378.7C420 321 480 372 540 442.3C600 512.7 660 602.3 720 724C780 845.7 840 999.3 900 1114.5C960 1229.7 1020 1306.3 1080 1357.5C1140 1408.7 1200 1434.3 1260 1344.8C1320 1255.3 1380 1050.7 1440 1012.3C1500 974 1560 1102 1620 1070C1680 1038 1740 846 1800 769.2C1860 692.3 1920 730.7 1980 705C2040 679.3 2100 589.7 2130 544.8L2160 500L2160 460L2130 408.8C2100 357.7 2040 255.3 1980 216.8C1920 178.3 1860 203.7 1800 248.3C1740 293 1680 357 1620 357C1560 357 1500 293 1440 344.3C1380 395.7 1320 562.3 1260 613.7C1200 665 1140 601 1080 588.2C1020 575.3 960 613.7 900 613.7C840 613.7 780 575.3 720 511.3C660 447.3 600 357.7 540 293.7C480 229.7 420 191.3 360 255.3C300 319.3 240 485.7 180 498.3C120 511 60 370 30 299.5L0 229Z" fill="#dedede"></path><path d="M0 999L30 1050.3C60 1101.7 120 1204.3 180 1370.8C240 1537.3 300 1767.7 360 1793.2C420 1818.7 480 1639.3 540 1664.8C600 1690.3 660 1920.7 720 1869.5C780 1818.3 840 1485.7 900 1492.2C960 1498.7 1020 1844.3 1080 1966C1140 2087.7 1200 1985.3 1260 1870.2C1320 1755 1380 1627 1440 1556.5C1500 1486 1560 1473 1620 1549.7C1680 1626.3 1740 1792.7 1800 1760.7C1860 1728.7 1920 1498.3 1980 1504.8C2040 1511.3 2100 1754.7 2130 1876.3L2160 1998L2160 498L2130 542.8C2100 587.7 2040 677.3 1980 703C1920 728.7 1860 690.3 1800 767.2C1740 844 1680 1036 1620 1068C1560 1100 1500 972 1440 1010.3C1380 1048.7 1320 1253.3 1260 1342.8C1200 1432.3 1140 1406.7 1080 1355.5C1020 1304.3 960 1227.7 900 1112.5C840 997.3 780 843.7 720 722C660 600.3 600 510.7 540 440.3C480 370 420 319 360 376.7C300 434.3 240 600.7 180 619.8C120 639 60 511 30 447L0 383Z" fill="#e2e2e2"></path><path d="M0 1268L30 1325.7C60 1383.3 120 1498.7 180 1633.2C240 1767.7 300 1921.3 360 1914.8C420 1908.3 480 1741.7 540 1799.2C600 1856.7 660 2138.3 720 2106.3C780 2074.3 840 1728.7 900 1690.3C960 1652 1020 1921 1080 2049C1140 2177 1200 2164 1260 2100C1320 2036 1380 1921 1440 1805.8C1500 1690.7 1560 1575.3 1620 1639.3C1680 1703.3 1740 1946.7 1800 1946.7C1860 1946.7 1920 1703.3 1980 1709.7C2040 1716 2100 1972 2130 2100L2160 2228L2160 1996L2130 1874.3C2100 1752.7 2040 1509.3 1980 1502.8C1920 1496.3 1860 1726.7 1800 1758.7C1740 1790.7 1680 1624.3 1620 1547.7C1560 1471 1500 1484 1440 1554.5C1380 1625 1320 1753 1260 1868.2C1200 1983.3 1140 2085.7 1080 1964C1020 1842.3 960 1496.7 900 1490.2C840 1483.7 780 1816.3 720 1867.5C660 1918.7 600 1688.3 540 1662.8C480 1637.3 420 1816.7 360 1791.2C300 1765.7 240 1535.3 180 1368.8C120 1202.3 60 1099.7 30 1048.3L0 997Z" fill="#e5e5e5"></path><path d="M0 1460L30 1517.7C60 1575.3 120 1690.7 180 1844.3C240 1998 300 2190 360 2234.8C420 2279.7 480 2177.3 540 2228.5C600 2279.7 660 2484.3 720 2426.7C780 2369 840 2049 900 2017C960 1985 1020 2241 1080 2343.3C1140 2445.7 1200 2394.3 1260 2343.2C1320 2292 1380 2241 1440 2093.8C1500 1946.7 1560 1703.3 1620 1754.5C1680 1805.7 1740 2151.3 1800 2215.3C1860 2279.3 1920 2061.7 1980 2061.7C2040 2061.7 2100 2279.3 2130 2388.2L2160 2497L2160 2226L2130 2098C2100 1970 2040 1714 1980 1707.7C1920 1701.3 1860 1944.7 1800 1944.7C1740 1944.7 1680 1701.3 1620 1637.3C1560 1573.3 1500 1688.7 1440 1803.8C1380 1919 1320 2034 1260 2098C1200 2162 1140 2175 1080 2047C1020 1919 960 1650 900 1688.3C840 1726.7 780 2072.3 720 2104.3C660 2136.3 600 1854.7 540 1797.2C480 1739.7 420 1906.3 360 1912.8C300 1919.3 240 1765.7 180 1631.2C120 1496.7 60 1381.3 30 1323.7L0 1266Z" fill="#e8e8e8"></path><path d="M0 2651L30 2663.7C60 2676.3 120 2701.7 180 2676C240 2650.3 300 2573.7 360 2554.5C420 2535.3 480 2573.7 540 2618.5C600 2663.3 660 2714.7 720 2733.8C780 2753 840 2740 900 2714.3C960 2688.7 1020 2650.3 1080 2656.8C1140 2663.3 1200 2714.7 1260 2701.8C1320 2689 1380 2612 1440 2599.2C1500 2586.3 1560 2637.7 1620 2663.3C1680 2689 1740 2689 1800 2663.3C1860 2637.7 1920 2586.3 1980 2586.3C2040 2586.3 2100 2637.7 2130 2663.3L2160 2689L2160 2495L2130 2386.2C2100 2277.3 2040 2059.7 1980 2059.7C1920 2059.7 1860 2277.3 1800 2213.3C1740 2149.3 1680 1803.7 1620 1752.5C1560 1701.3 1500 1944.7 1440 2091.8C1380 2239 1320 2290 1260 2341.2C1200 2392.3 1140 2443.7 1080 2341.3C1020 2239 960 1983 900 2015C840 2047 780 2367 720 2424.7C660 2482.3 600 2277.7 540 2226.5C480 2175.3 420 2277.7 360 2232.8C300 2188 240 1996 180 1842.3C120 1688.7 60 1573.3 30 1515.7L0 1458Z" fill="#ebebeb"></path><path d="M0 2919L30 2951C60 2983 120 3047 180 3002.3C240 2957.7 300 2804.3 360 2740.3C420 2676.3 480 2701.7 540 2720.8C600 2740 660 2753 720 2772.3C780 2791.7 840 2817.3 900 2830.2C960 2843 1020 2843 1080 2875C1140 2907 1200 2971 1260 2964.5C1320 2958 1380 2881 1440 2836.2C1500 2791.3 1560 2778.7 1620 2759.5C1680 2740.3 1740 2714.7 1800 2740.2C1860 2765.7 1920 2842.3 1980 2842.3C2040 2842.3 2100 2765.7 2130 2727.3L2160 2689L2160 2687L2130 2661.3C2100 2635.7 2040 2584.3 1980 2584.3C1920 2584.3 1860 2635.7 1800 2661.3C1740 2687 1680 2687 1620 2661.3C1560 2635.7 1500 2584.3 1440 2597.2C1380 2610 1320 2687 1260 2699.8C1200 2712.7 1140 2661.3 1080 2654.8C1020 2648.3 960 2686.7 900 2712.3C840 2738 780 2751 720 2731.8C660 2712.7 600 2661.3 540 2616.5C480 2571.7 420 2533.3 360 2552.5C300 2571.7 240 2648.3 180 2674C120 2699.7 60 2674.3 30 2661.7L0 2649Z" fill="#efefef"></path><path d="M0 3150L30 3156.3C60 3162.7 120 3175.3 180 3143.3C240 3111.3 300 3034.7 360 2964.3C420 2894 480 2830 540 2798C600 2766 660 2766 720 2798C780 2830 840 2894 900 2926C960 2958 1020 2958 1080 2977.2C1140 2996.3 1200 3034.7 1260 3053.8C1320 3073 1380 3073 1440 3085.8C1500 3098.7 1560 3124.3 1620 3060.3C1680 2996.3 1740 2842.7 1800 2829.8C1860 2817 1920 2945 1980 2983.3C2040 3021.7 2100 2970.3 2130 2944.7L2160 2919L2160 2687L2130 2725.3C2100 2763.7 2040 2840.3 1980 2840.3C1920 2840.3 1860 2763.7 1800 2738.2C1740 2712.7 1680 2738.3 1620 2757.5C1560 2776.7 1500 2789.3 1440 2834.2C1380 2879 1320 2956 1260 2962.5C1200 2969 1140 2905 1080 2873C1020 2841 960 2841 900 2828.2C840 2815.3 780 2789.7 720 2770.3C660 2751 600 2738 540 2718.8C480 2699.7 420 2674.3 360 2738.3C300 2802.3 240 2955.7 180 3000.3C120 3045 60 2981 30 2949L0 2917Z" fill="#f2f2f2"></path><path d="M0 3419L30 3412.5C60 3406 120 3393 180 3373.7C240 3354.3 300 3328.7 360 3226.3C420 3124 480 2945 540 2938.7C600 2932.3 660 3098.7 720 3156.2C780 3213.7 840 3162.3 900 3156C960 3149.7 1020 3188.3 1080 3220.3C1140 3252.3 1200 3277.7 1260 3303.2C1320 3328.7 1380 3354.3 1440 3367.2C1500 3380 1560 3380 1620 3296.8C1680 3213.7 1740 3047.3 1800 3021.8C1860 2996.3 1920 3111.7 1980 3169.3C2040 3227 2100 3227 2130 3227L2160 3227L2160 2917L2130 2942.7C2100 2968.3 2040 3019.7 1980 2981.3C1920 2943 1860 2815 1800 2827.8C1740 2840.7 1680 2994.3 1620 3058.3C1560 3122.3 1500 3096.7 1440 3083.8C1380 3071 1320 3071 1260 3051.8C1200 3032.7 1140 2994.3 1080 2975.2C1020 2956 960 2956 900 2924C840 2892 780 2828 720 2796C660 2764 600 2764 540 2796C480 2828 420 2892 360 2962.3C300 3032.7 240 3109.3 180 3141.3C120 3173.3 60 3160.7 30 3154.3L0 3148Z" fill="#f5f5f5"></path><path d="M0 3495L30 3482.3C60 3469.7 120 3444.3 180 3495.7C240 3547 300 3675 360 3662.2C420 3649.3 480 3495.7 540 3463.7C600 3431.7 660 3521.3 720 3514.8C780 3508.3 840 3405.7 900 3360.8C960 3316 1020 3329 1080 3367.5C1140 3406 1200 3470 1260 3514.8C1320 3559.7 1380 3585.3 1440 3591.7C1500 3598 1560 3585 1620 3553C1680 3521 1740 3470 1800 3463.7C1860 3457.3 1920 3495.7 1980 3508.3C2040 3521 2100 3508 2130 3501.5L2160 3495L2160 3225L2130 3225C2100 3225 2040 3225 1980 3167.3C1920 3109.7 1860 2994.3 1800 3019.8C1740 3045.3 1680 3211.7 1620 3294.8C1560 3378 1500 3378 1440 3365.2C1380 3352.3 1320 3326.7 1260 3301.2C1200 3275.7 1140 3250.3 1080 3218.3C1020 3186.3 960 3147.7 900 3154C840 3160.3 780 3211.7 720 3154.2C660 3096.7 600 2930.3 540 2936.7C480 2943 420 3122 360 3224.3C300 3326.7 240 3352.3 180 3371.7C120 3391 60 3404 30 3410.5L0 3417Z" fill="#f8f8f8"></path><path d="M0 3726L30 3687.5C60 3649 120 3572 180 3584.8C240 3597.7 300 3700.3 360 3726C420 3751.7 480 3700.3 540 3668.3C600 3636.3 660 3623.7 720 3617.3C780 3611 840 3611 900 3598.2C960 3585.3 1020 3559.7 1080 3546.8C1140 3534 1200 3534 1260 3585.2C1320 3636.3 1380 3738.7 1440 3745C1500 3751.3 1560 3661.7 1620 3604C1680 3546.3 1740 3520.7 1800 3559.2C1860 3597.7 1920 3700.3 1980 3751.7C2040 3803 2100 3803 2130 3803L2160 3803L2160 3493L2130 3499.5C2100 3506 2040 3519 1980 3506.3C1920 3493.7 1860 3455.3 1800 3461.7C1740 3468 1680 3519 1620 3551C1560 3583 1500 3596 1440 3589.7C1380 3583.3 1320 3557.7 1260 3512.8C1200 3468 1140 3404 1080 3365.5C1020 3327 960 3314 900 3358.8C840 3403.7 780 3506.3 720 3512.8C660 3519.3 600 3429.7 540 3461.7C480 3493.7 420 3647.3 360 3660.2C300 3673 240 3545 180 3493.7C120 3442.3 60 3467.7 30 3480.3L0 3493Z" fill="#fcfcfc"></path><path d="M0 3841L30 3841C60 3841 120 3841 180 3841C240 3841 300 3841 360 3841C420 3841 480 3841 540 3841C600 3841 660 3841 720 3841C780 3841 840 3841 900 3841C960 3841 1020 3841 1080 3841C1140 3841 1200 3841 1260 3841C1320 3841 1380 3841 1440 3841C1500 3841 1560 3841 1620 3841C1680 3841 1740 3841 1800 3841C1860 3841 1920 3841 1980 3841C2040 3841 2100 3841 2130 3841L2160 3841L2160 3801L2130 3801C2100 3801 2040 3801 1980 3749.7C1920 3698.3 1860 3595.7 1800 3557.2C1740 3518.7 1680 3544.3 1620 3602C1560 3659.7 1500 3749.3 1440 3743C1380 3736.7 1320 3634.3 1260 3583.2C1200 3532 1140 3532 1080 3544.8C1020 3557.7 960 3583.3 900 3596.2C840 3609 780 3609 720 3615.3C660 3621.7 600 3634.3 540 3666.3C480 3698.3 420 3749.7 360 3724C300 3698.3 240 3595.7 180 3582.8C120 3570 60 3647 30 3685.5L0 3724Z" fill="#ffffff"></path></svg>